<svg id="Icons" height="512" viewBox="0 0 74 74" width="512" xmlns="http://www.w3.org/2000/svg"><path d="m32.24 55.9h-2.97a1 1 0 0 1 0-2h2.97a1 1 0 0 1 0 2z"/><path d="m57.13 55.9h-17.89a1 1 0 0 1 0-2h17.136c1.5-4.321 7.664-10.112 7.941-10.371 4.91-4.439 5.6-11.3 5.677-13.942-4.546.64-9.194 1.424-13.831 2.334a321.388 321.388 0 0 0 -45.563 12.511c-3.287 1.174-5.57 2.068-6.6 2.473v6.995h8.37a1 1 0 0 1 0 2h-9.37a1 1 0 0 1 -1-1v-8.67a1 1 0 0 1 .619-.924c.027-.012 2.7-1.109 7.3-2.757a323.448 323.448 0 0 1 45.86-12.591c5.06-.993 10.133-1.837 15.076-2.509a1 1 0 0 1 1.133.932c.025.423.53 10.43-6.317 16.62-1.869 1.748-6.9 6.992-7.563 10.108a1 1 0 0 1 -.978.791z"/><path d="m22.27 55.9h-2.9a1 1 0 1 1 0-2h2.9a1 1 0 1 1 0 2z"/><path d="m10.259 44.485a1 1 0 0 1 -1-1v-14.572a1 1 0 0 1 .748-.968c11.047-2.873 33.853-4.345 34.819-4.408a.987.987 0 0 1 .563.132l11.082 6.4a1 1 0 1 1 -1 1.732l-10.819-6.248c-2.71.182-22.951 1.608-33.393 4.139v13.793a1 1 0 0 1 -1 1z"/><path d="m10.259 36.955a1 1 0 0 1 -.342-1.941c12.976-4.713 39.4-8.633 39.668-8.672a1 1 0 0 1 .291 1.979c-.263.039-26.491 3.929-39.276 8.573a1 1 0 0 1 -.341.061z"/><path d="m26.72 27.19a1 1 0 0 1 -.962-.726l-2.02-7.09a1 1 0 0 1 .962-1.274h7.16a1 1 0 0 1 .954.7l1.98 6.33a.976.976 0 0 1 .046.3 1 1 0 0 1 -1.975.233l-1.74-5.563h-5.1l1.657 5.816a1 1 0 0 1 -.962 1.274z"/><path d="m15.3 28.831a1 1 0 0 1 -.967-.75l-2.26-8.73a1 1 0 0 1 .967-1.251h7.16a1 1 0 0 1 .957.71l2.31 7.609a1 1 0 1 1 -1.914.581l-2.1-6.9h-5.121l1.936 7.48a1 1 0 0 1 -.718 1.22.989.989 0 0 1 -.25.031z"/><path d="m51.57 40.221a1 1 0 0 0 0-2 1 1 0 0 0 0 2z"/><path d="m45.705 41.579a1 1 0 0 0 0-2 1 1 0 0 0 0 2z"/><path d="m39.84 42.937a1 1 0 0 0 0-2 1 1 0 0 0 0 2z"/></svg>