<svg id="Layer_1" height="512" viewBox="0 0 512 512" width="512" xmlns="http://www.w3.org/2000/svg" data-name="Layer 1"><path d="m116.18 132.11h166.74a6 6 0 0 0 6-6v-47.81a19.246 19.246 0 0 0 -19.23-19.22h-140.28a19.247 19.247 0 0 0 -19.23 19.22v47.81a6 6 0 0 0 6 6zm6-53.81a7.233 7.233 0 0 1 7.23-7.22h140.28a7.233 7.233 0 0 1 7.23 7.22v41.81h-154.74z"/><path d="m113.46 191.97a6 6 0 0 0 -6 6v7.83a6 6 0 0 0 12 0v-7.83a6 6 0 0 0 -6-6z"/><path d="m113.46 217.71a6 6 0 0 0 -6 6v117.53a6 6 0 0 0 12 0v-117.53a6 6 0 0 0 -6-6z"/><path d="m208.333 190.9a6 6 0 0 0 6 6h135.277a8.31 8.31 0 0 1 8.3 8.3v202.29a8.309 8.309 0 0 1 -8.3 8.3h-189.47a8.309 8.309 0 0 1 -8.3-8.3v-202.29a8.31 8.31 0 0 1 8.3-8.3h24.193a6 6 0 0 0 0-12h-24.193a20.322 20.322 0 0 0 -20.3 20.3v202.29a20.322 20.322 0 0 0 20.3 20.3h189.47a20.322 20.322 0 0 0 20.3-20.3v-202.29a20.322 20.322 0 0 0 -20.3-20.3h-135.277a6 6 0 0 0 -6 6z"/><path d="m249.369 389.325a57.671 57.671 0 0 0 49.789-86.847l-44.61-76.17a6 6 0 0 0 -10.355 0l-44.62 76.17a57.67 57.67 0 0 0 49.8 86.848zm-39.442-80.783 39.442-67.331 39.436 67.333a45.7 45.7 0 0 1 -7.117 55.422 45.709 45.709 0 0 1 -71.76-55.425z"/><path d="m258.75 358.4a6 6 0 0 0 1.948-.326 34.778 34.778 0 0 0 7.022-3.337 35.31 35.31 0 0 0 6.237-4.96 34.6 34.6 0 0 0 9.5-17.713 6 6 0 0 0 -11.757-2.364 22.632 22.632 0 0 1 -6.221 11.593 23.263 23.263 0 0 1 -4.1 3.262 22.694 22.694 0 0 1 -4.578 2.175 6 6 0 0 0 1.949 11.67z"/><path d="m443.721 104.692-85.78-41.65a6 6 0 0 0 -8.07 2.887l-11.971 25.984-4.886-2.52v-23.143a50.132 50.132 0 0 0 -50.08-50.07h-167.954a50.132 50.132 0 0 0 -50.08 50.07v379.5a50.132 50.132 0 0 0 50.08 50.07h279.8a50.127 50.127 0 0 0 50.07-50.07v-295a6 6 0 0 0 -3.249-5.332l-7.787-4.017 12.773-28.885a6 6 0 0 0 -2.866-7.824zm-10.871 341.058a38.114 38.114 0 0 1 -38.07 38.07h-279.8a38.118 38.118 0 0 1 -38.08-38.07v-379.5a38.118 38.118 0 0 1 38.08-38.07h167.95a38.118 38.118 0 0 1 38.08 38.07v26.8a6 6 0 0 0 3.25 5.332l108.59 56.024zm-9.718-309.861-74.562-38.47 9.637-20.908 75.064 36.447z"/></svg>