<svg id="Capa_1" enable-background="new 0 0 512 512" height="512" viewBox="0 0 512 512" width="512" xmlns="http://www.w3.org/2000/svg"><g><g><g><path d="m397.7 237.1c-2.225-3.309-6.352-5.04-10.271-4.25-4.173.841-7.378 4.286-7.959 8.495-.576 4.167 1.704 8.435 5.49 10.268 3.717 1.799 8.238 1.163 11.263-1.674 3.523-3.302 4.153-8.822 1.477-12.839z"/><path d="m413.596 92.766h-44.298v-55.915c0-24.193-16.023-36.851-31.851-36.851-18.754 0-31.852 15.154-31.852 36.851v55.915h-99.191v-55.915c0-21.697-13.097-36.851-31.851-36.851-15.828 0-31.851 12.658-31.851 36.851v55.915h-44.298c-5.522 0-10 4.477-10 10v42.964c0 5.523 4.478 10 10 10h14.213v167.094c0 43.932 35.74 79.672 79.672 79.672h8.009v34.333c0 5.523 4.478 10 10 10h10v55.171c0 5.523 4.478 10 10 10h51.404c5.523 0 10-4.477 10-10v-55.17h10c5.523 0 10-4.477 10-10v-34.333h8.009c43.932 0 79.672-35.741 79.672-79.672v-35.15c0-5.523-4.478-10-10-10s-10 4.477-10 10v35.15c0 32.903-26.769 59.672-59.672 59.672h-127.422c-32.903 0-59.672-26.769-59.672-59.672v-167.095h246.766v41.532c0 5.523 4.478 10 10 10s10-4.477 10-10v-41.532h14.213c5.522 0 10-4.477 10-10v-42.964c0-5.523-4.478-10-10-10zm-141.894 399.234h-31.404v-45.17h31.404zm20-89.503v24.333h-71.404v-24.333zm33.894-365.646c0-10.394 4.541-16.851 11.852-16.851 7.31 0 11.851 6.457 11.851 16.851v55.915h-23.702v-55.915zm-162.894 0c0-10.394 4.541-16.851 11.851-16.851 7.311 0 11.852 6.457 11.852 16.851v55.915h-23.702v-55.915zm240.894 98.879h-295.192v-22.964h295.191v22.964z"/><path d="m245.709 362.48c.872.237 1.753.352 2.625.352 3.48 0 6.794-1.825 8.622-4.937l57.816-98.446c1.815-3.092 1.837-6.919.056-10.032-1.781-3.112-5.093-5.032-8.679-5.032h-32.482v-58.975c0-4.512-3.021-8.465-7.376-9.65-4.352-1.183-8.961.693-11.247 4.586l-57.816 98.446c-1.815 3.092-1.837 6.919-.056 10.032 1.781 3.112 5.093 5.032 8.679 5.032h32.482v58.975c0 4.512 3.022 8.465 7.376 9.649zm-22.389-88.624 30.347-51.672v32.201c0 5.523 4.477 10 10 10h25.013l-30.347 51.672v-32.201c0-5.523-4.478-10-10-10z"/></g></g></g></svg>