<svg id="Layer_1" enable-background="new 0 0 512 512" height="512" viewBox="0 0 512 512" width="512" xmlns="http://www.w3.org/2000/svg"><g><path d="m496 324.305v-50.305c0-76.093-61.906-138-138-138h-73.084c-8.524-7.291-18.283-13.176-28.916-17.293v-30.825c8.329-.926 14.956-7.553 15.882-15.882h68.118c15.439 0 28-12.561 28-28s-12.561-28-28-28h-68.118c-.999-8.987-8.634-16-17.882-16h-68c-9.249 0-16.883 7.013-17.882 16h-68.118c-15.439 0-28 12.561-28 28s12.561 28 28 28h68.118c.926 8.329 7.553 14.956 15.882 15.882v30.825c-10.634 4.117-20.392 10.002-28.916 17.293h-75.084v-20c0-15.439-12.561-28-28-28h-44c-4.418 0-8 3.582-8 8s3.582 8 8 8h44c6.617 0 12 5.383 12 12v192c0 6.617-5.383 12-12 12h-44c-4.418 0-8 3.582-8 8s3.582 8 8 8h44c15.439 0 28-12.561 28-28v-20h75.084c37.419 32.009 92.419 32.004 129.832 0h37.084c12.131 0 22 9.869 22 22v14.305c-9.555 5.542-16 15.876-16 27.695 0 17.645 14.355 32 32 32h120c17.645 0 32-14.355 32-32 0-11.818-6.445-22.153-16-27.695zm-144-280.305c0 6.617-5.383 12-12 12h-68v-24h68c6.617 0 12 5.383 12 12zm-168-26c0-1.103.897-2 2-2h68c1.103 0 2 .897 2 2v52c0 1.103-.897 2-2 2-19.578 0-45.619 0-68 0-1.103 0-2-.897-2-2 0-22.259 0-29.903 0-52zm-96 26c0-6.617 5.383-12 12-12h68v24h-68c-6.617 0-12-5.383-12-12zm112 44h40v26.011c-13-2.649-26.686-2.713-40 0zm-120 64h60.051c-26.729 35.527-26.765 84.426 0 120h-60.051zm56 60c0-46.318 37.682-84 84-84 46.317 0 84 37.682 84 84s-37.683 84-84 84c-46.318 0-84-37.682-84-84zm186 60h-22.051c26.73-35.529 26.763-84.428 0-120h58.051c67.271 0 122 54.729 122 122v46h-120v-10c0-20.953-17.047-38-38-38zm158 96h-120c-8.822 0-16-7.178-16-16s7.178-16 16-16h120c8.822 0 16 7.178 16 16s-7.178 16-16 16z"/><path d="m424.116 401.14c-2.533-1.521-5.699-1.521-8.232 0-1.792 1.075-43.884 26.746-43.884 62.86 0 26.467 21.533 48 48 48s48-21.533 48-48c0-36.114-42.092-61.785-43.884-62.86zm-4.116 94.86c-17.645 0-32-14.355-32-32 0-21.451 22.52-39.667 32-46.384 9.48 6.717 32 24.933 32 46.384 0 17.645-14.355 32-32 32z"/></g></svg>